<svg version="1.1" xmlns="http://www.w3.org/2000/svg" style="display: block;" viewBox="0 0 1508 1508" width="377" height="377" preserveAspectRatio="none">
<path transform="translate(0,0)" fill="rgb(24,24,24)" d="M 1330.69 811.792 C 1330.47 854.686 1338.24 905.06 1306.42 938.25 C 1285.65 959.922 1263.29 981.578 1242.02 1002.86 L 1096.07 1148.12 L 982.865 1261.44 C 968.667 1275.46 954.437 1292.43 939.002 1304.6 C 912.108 1325.81 878.159 1324.07 846.359 1324.56 C 809.339 1324.86 772.316 1324.84 735.296 1324.5 L 662.616 1324.25 C 624.108 1324.07 591.456 1325.64 560.433 1297.37 C 543.947 1282.35 528.853 1265.97 512.784 1250.51 L 368.252 1110.11 L 247.026 992.665 C 208.643 955.497 167.024 928.106 164.936 870.591 C 164.355 854.577 164.383 838.884 164.382 822.901 L 164.38 741.776 L 164.366 674.058 C 164.377 657.381 163.862 638.553 166.541 622.192 C 169.292 605.395 179.791 578.653 191.976 566.31 C 261.013 496.379 332.182 428.588 401.98 359.41 L 516.477 246.409 C 531.092 232.021 548.82 212.094 564.056 199.81 C 578.685 188.016 609.229 176.814 628.261 176.424 C 669.356 175.581 711.325 176.409 752.642 176.266 L 831.321 176.038 C 850.009 175.977 868.768 175.064 887.254 178.092 C 927.113 184.621 948.798 214.507 975.104 241.522 C 997.056 263.733 1019.22 285.736 1041.58 307.528 L 1236.8 495.603 C 1262.15 520.422 1301.45 551.801 1318.64 581.402 C 1336.5 612.162 1329.47 653.878 1331.12 688.408 C 1353.41 700.988 1367.16 724.632 1367.07 750.225 C 1366.98 775.819 1353.07 799.367 1330.69 811.792 z M 503.857 1180.01 C 506.966 1179.91 510.256 1180.44 512.694 1178.17 C 514.494 1176.49 521.183 1142.94 523.88 1135.26 C 542.865 1081.22 597.363 1034.79 655.716 1031.95 C 677.339 1030.9 699.27 1031.85 720.94 1031.81 L 859.662 1031.68 C 884.309 1031.62 923.126 1033.55 946.1 1028.2 C 964.652 1023.92 981.503 1014.2 994.493 1000.29 C 1011.24 982.172 1020.73 959.991 1020.82 935.526 C 1020.89 916.169 1020.95 896.796 1020.92 877.447 L 1020.78 741.504 L 1020.82 466.689 L 1020.85 370.645 C 1020.83 356.022 1021.41 337.177 1020.74 322.961 C 1020.7 321.971 1020.64 320.98 1020.58 319.99 C 1008.62 319.982 995.287 320.264 983.449 319.858 C 980.414 331.839 979.665 342.439 976.143 354.472 C 964.462 393.878 938.366 427.439 903.054 448.47 C 859.044 474.581 819.021 468.945 770.142 468.933 L 619.843 468.905 C 592.323 468.865 563.324 466.912 536.966 474.388 C 505.534 483.302 477.685 511.185 470.443 542.936 C 465.484 564.677 466.948 605.061 466.959 629.214 L 467.032 745.971 L 467.645 1021 C 467.769 1069.26 466.994 1117.68 467.887 1166.04 C 467.96 1170.03 468.416 1174 470.374 1177.54 C 475.146 1180.46 496.776 1179.92 503.857 1180.01 z"></path>
<path transform="translate(0,0)" fill="rgb(44,112,254)" d="M 1330.69 811.792 C 1300.9 828.336 1263.55 821.276 1241.85 795 C 1220.15 768.725 1220.29 730.71 1242.16 704.585 C 1264.04 678.46 1301.45 671.659 1331.12 688.408 C 1353.41 700.988 1367.16 724.632 1367.07 750.225 C 1366.98 775.819 1353.07 799.367 1330.69 811.792 z"></path>
</svg>